<?xml version="1.0" encoding="UTF-8" standalone="no"?>
<!-- Created with Inkscape (http://www.inkscape.org/) -->

<svg
   width="44.400002mm"
   height="26.714479mm"
   viewBox="0 0 44.400002 26.714479"
   version="1.1"
   id="svg1"
   xmlns="http://www.w3.org/2000/svg"
   xmlns:svg="http://www.w3.org/2000/svg">
  <defs
     id="defs1" />
  <g
     id="layer1"
     transform="translate(-8.9590513,-60.109266)">
    <path
       style="font-size:10.2306px;line-height:0;font-family:Calibri;-inkscape-font-specification:Calibri;baseline-shift:baseline;fill:#303030;stroke:#ababab;stroke-width:0.245108"
       d="m 15.877892,62.415406 q 0,0.09491 -0.01,0.169844 -0.01,0.06994 -0.02997,0.11989 -0.01998,0.04496 -0.04995,0.06494 -0.02997,0.01998 -0.06494,0.01998 -0.05995,0 -0.199817,-0.09491 -0.139871,-0.09491 -0.374655,-0.209807 -0.234785,-0.114895 -0.564482,-0.209808 -0.324701,-0.09491 -0.774288,-0.09491 -0.534509,0 -0.959119,0.194821 -0.42461,0.194821 -0.719339,0.539504 -0.294729,0.344683 -0.454582,0.819247 -0.154858,0.474564 -0.154858,1.029055 0,0.619431 0.169844,1.09899 0.174839,0.479559 0.479559,0.809257 0.30472,0.329697 0.724335,0.499541 0.42461,0.169843 0.929146,0.169843 0.299725,0 0.604445,-0.06994 0.309715,-0.07493 0.574472,-0.219798 v -1.88327 H 13.50507 q -0.08492,0 -0.129881,-0.08492 -0.03996,-0.08492 -0.03996,-0.264757 0,-0.09491 0.01,-0.159853 0.01,-0.06994 0.02997,-0.109899 0.02498,-0.04496 0.05495,-0.06494 0.02997,-0.01998 0.07493,-0.01998 h 2.053113 q 0.05495,0 0.109899,0.01998 0.05495,0.01998 0.09991,0.05994 0.04496,0.03996 0.06993,0.109899 0.02498,0.06994 0.02498,0.159853 v 2.462737 q 0,0.129881 -0.04496,0.224794 -0.04496,0.09491 -0.189826,0.169844 -0.144867,0.06994 -0.374656,0.154857 -0.229789,0.08492 -0.474564,0.144867 -0.244775,0.05994 -0.494545,0.08992 -0.249771,0.02997 -0.494546,0.02997 -0.749311,0 -1.33877,-0.229789 -0.589458,-0.234784 -0.999082,-0.664389 -0.404628,-0.429606 -0.619431,-1.029055 -0.214802,-0.599449 -0.214802,-1.33877 0,-0.769293 0.229788,-1.393719 0.234785,-0.624427 0.654399,-1.064023 0.42461,-0.439596 1.014068,-0.679376 0.594454,-0.244775 1.313793,-0.244775 0.369661,0 0.694362,0.06494 0.324702,0.06494 0.574473,0.154857 0.254766,0.08492 0.424609,0.189826 0.17484,0.09991 0.23978,0.164848 0.06494,0.06494 0.08992,0.149863 0.02498,0.08492 0.02498,0.244775 z m 7.013556,2.277907 q 0,0.784279 -0.184831,1.413701 -0.18483,0.629422 -0.55449,1.074013 -0.364665,0.439596 -0.919156,0.679376 -0.55449,0.234784 -1.293811,0.234784 -0.72933,0 -1.263839,-0.214802 -0.529513,-0.219798 -0.879192,-0.634417 -0.344683,-0.414619 -0.514527,-1.029055 -0.169844,-0.614435 -0.169844,-1.413701 0,-0.764298 0.18483,-1.388724 0.18483,-0.624426 0.554491,-1.059027 0.36966,-0.439596 0.924151,-0.67438 0.55449,-0.23978 1.293811,-0.23978 0.714344,0 1.243857,0.214803 0.529514,0.214802 0.879192,0.629421 0.354674,0.409624 0.524518,1.019064 0.17484,0.604445 0.17484,1.388724 z m -0.90417,0.05994 q 0,-0.549495 -0.09991,-1.019064 -0.09491,-0.474564 -0.324701,-0.819247 -0.224794,-0.349679 -0.604445,-0.5445 -0.379651,-0.194821 -0.939137,-0.194821 -0.559486,0 -0.939137,0.209807 -0.379652,0.209808 -0.619431,0.559486 -0.234785,0.349679 -0.339688,0.819248 -0.09991,0.464573 -0.09991,0.9791 0,0.569477 0.09491,1.049036 0.09491,0.47956 0.319707,0.829238 0.224793,0.344684 0.599449,0.539505 0.379651,0.189825 0.949128,0.189825 0.564481,0 0.949128,-0.209807 0.384646,-0.209807 0.619431,-0.564481 0.234784,-0.35967 0.334692,-0.829238 0.09991,-0.469569 0.09991,-0.994087 z m 6.039451,-2.847384 q 0,0.09491 -0.01,0.164849 -0.01,0.06994 -0.03497,0.114894 -0.01998,0.03996 -0.05495,0.05994 -0.02997,0.01998 -0.06994,0.01998 H 26.03854 v 5.60485 q 0,0.03996 -0.01998,0.06994 -0.01998,0.02997 -0.06994,0.04995 -0.04995,0.01499 -0.134876,0.02498 -0.07993,0.01499 -0.204812,0.01499 -0.11989,0 -0.204812,-0.01499 -0.08492,-0.01 -0.134876,-0.02498 -0.04995,-0.01998 -0.06994,-0.04995 -0.01998,-0.02997 -0.01998,-0.06994 v -5.60485 h -1.818329 q -0.03996,0 -0.07493,-0.01998 -0.02997,-0.01998 -0.04995,-0.05994 -0.01998,-0.04496 -0.03497,-0.114894 -0.01,-0.06994 -0.01,-0.164849 0,-0.09491 0.01,-0.164848 0.01499,-0.07493 0.03497,-0.11989 0.01998,-0.04496 0.04995,-0.06494 0.03497,-0.01998 0.07493,-0.01998 h 4.495869 q 0.03996,0 0.06994,0.01998 0.03497,0.01998 0.05495,0.06494 0.02498,0.04496 0.03497,0.11989 0.01,0.06994 0.01,0.164848 z m 5.125292,0 q 0,0.09491 -0.01,0.164849 -0.01,0.06994 -0.03497,0.114894 -0.01998,0.03996 -0.05495,0.05994 -0.02997,0.01998 -0.06994,0.01998 h -1.81833 v 5.60485 q 0,0.03996 -0.01998,0.06994 -0.01998,0.02997 -0.06994,0.04995 -0.04995,0.01499 -0.134876,0.02498 -0.07993,0.01499 -0.204812,0.01499 -0.11989,0 -0.204812,-0.01499 -0.08492,-0.01 -0.134876,-0.02498 -0.04995,-0.01998 -0.06994,-0.04995 -0.01998,-0.02997 -0.01998,-0.06994 v -5.60485 h -1.81833 q -0.03996,0 -0.07493,-0.01998 -0.02997,-0.01998 -0.04995,-0.05994 -0.01998,-0.04496 -0.03497,-0.114894 -0.01,-0.06994 -0.01,-0.164849 0,-0.09491 0.01,-0.164848 0.01499,-0.07493 0.03497,-0.11989 0.01998,-0.04496 0.04995,-0.06494 0.03497,-0.01998 0.07493,-0.01998 h 4.49587 q 0.03996,0 0.06994,0.01998 0.03497,0.01998 0.05495,0.06494 0.02498,0.04496 0.03497,0.11989 0.01,0.06994 0.01,0.164848 z m 4.975428,5.789681 q 0.03996,0.109899 0.03996,0.179834 0.005,0.06494 -0.03497,0.09991 -0.03996,0.03497 -0.134876,0.04496 -0.08992,0.01 -0.244775,0.01 -0.154858,0 -0.24977,-0.01 -0.08992,-0.005 -0.139872,-0.01998 -0.04496,-0.01998 -0.06994,-0.04995 -0.01998,-0.02997 -0.03996,-0.07493 l -0.55449,-1.573554 h -2.687531 l -0.529514,1.553573 q -0.01499,0.04496 -0.03996,0.07993 -0.02498,0.02997 -0.07493,0.05495 -0.04496,0.01998 -0.134876,0.02997 -0.08492,0.01 -0.224794,0.01 -0.144867,0 -0.239779,-0.01499 -0.08992,-0.01 -0.129881,-0.04496 -0.03497,-0.03497 -0.03497,-0.09991 0.005,-0.06994 0.04496,-0.179835 l 2.168008,-6.004483 q 0.01998,-0.05495 0.04995,-0.08992 0.03497,-0.03497 0.09491,-0.05495 0.06494,-0.01998 0.159853,-0.02498 0.09991,-0.01 0.24977,-0.01 0.159854,0 0.264757,0.01 0.104904,0.005 0.169844,0.02498 0.06494,0.01998 0.09991,0.05994 0.03497,0.03497 0.05495,0.08992 z m -2.782444,-5.300131 h -0.005 l -1.113977,3.22204 h 2.247935 z m 8.831886,2.277907 q 0,0.839229 -0.214803,1.468651 -0.214802,0.624426 -0.629421,1.039045 -0.409624,0.409624 -1.009073,0.614436 -0.599449,0.204812 -1.428688,0.204812 h -1.368742 q -0.114894,0 -0.219798,-0.07493 -0.09991,-0.07993 -0.09991,-0.274748 v -5.764704 q 0,-0.194821 0.09991,-0.269752 0.104904,-0.07993 0.219798,-0.07993 h 1.463655 q 0.839229,0 1.418697,0.219798 0.579467,0.214802 0.969109,0.624426 0.394638,0.404628 0.594454,0.984096 0.204812,0.579467 0.204812,1.308797 z m -0.904169,0.03497 q 0,-0.524518 -0.129881,-0.974105 Q 43.01296,63.279612 42.733217,62.949915 42.45847,62.620218 42.03386,62.435388 41.60925,62.250557 40.939865,62.250557 h -0.874197 v 5.030379 h 0.884188 q 0.619431,0 1.044041,-0.154858 0.42461,-0.154858 0.709348,-0.474564 0.284738,-0.319706 0.42461,-0.799266 0.144867,-0.484555 0.144867,-1.143949 z m 7.642977,-0.01499 q 0,0.784279 -0.184831,1.413701 -0.18483,0.629422 -0.55449,1.074013 -0.364665,0.439596 -0.919156,0.679376 -0.55449,0.234784 -1.293811,0.234784 -0.72933,0 -1.263839,-0.214802 -0.529513,-0.219798 -0.879192,-0.634417 -0.344683,-0.414619 -0.514527,-1.029055 -0.169844,-0.614435 -0.169844,-1.413701 0,-0.764298 0.18483,-1.388724 0.18483,-0.624426 0.554491,-1.059027 0.36966,-0.439596 0.924151,-0.67438 0.55449,-0.23978 1.293811,-0.23978 0.714343,0 1.243857,0.214803 0.529513,0.214802 0.879192,0.629421 0.354674,0.409624 0.524518,1.019064 0.17484,0.604445 0.17484,1.388724 z m -0.90417,0.05994 q 0,-0.549495 -0.09991,-1.019064 -0.09491,-0.474564 -0.324701,-0.819247 -0.224794,-0.349679 -0.604445,-0.5445 -0.379651,-0.194821 -0.939137,-0.194821 -0.559486,0 -0.939137,0.209807 -0.379652,0.209808 -0.619431,0.559486 -0.234785,0.349679 -0.339688,0.819248 -0.09991,0.464573 -0.09991,0.9791 0,0.569477 0.09491,1.049036 0.09491,0.47956 0.319707,0.829238 0.224793,0.344684 0.599449,0.539505 0.379651,0.189825 0.949128,0.189825 0.564481,0 0.949128,-0.209807 0.384646,-0.209807 0.619431,-0.564481 0.234784,-0.35967 0.334692,-0.829238 0.09991,-0.469569 0.09991,-0.994087 z"
       id="text1"
       transform="scale(1.0200804,0.98031489)"
       aria-label="GOTTADO" />
    <path
       style="fill:#000000;fill-opacity:0.818803;stroke-width:0.264583"
       id="rect1"
       width="44.531754"
       height="21.738873"
       x="8.5637989"
       y="65.480125"
       d="m 13.016974,65.480125 h 35.401427 a 4.6771517,4.6771517 45 0 1 4.677151,4.677152 v 11.949792 a 5.1119292,5.1119292 135 0 1 -5.111929,5.111929 H 12.845698 A 4.2818994,4.2818994 45 0 1 8.5637989,82.937099 V 69.933301 a 4.4531754,4.4531754 135 0 1 4.4531751,-4.453176 z"
       transform="matrix(0.99704142,0,0,0.99393938,0.42058897,0.13334779)" />
    <path
       style="fill:#eeeeee;fill-opacity:1;stroke:#eeeeee;stroke-width:0.196;stroke-linejoin:round;stroke-miterlimit:4;stroke-dasharray:none;stroke-opacity:1"
       id="rect2"
       width="3.4291894"
       height="3.2974389"
       x="12.777987"
       y="69.299065"
       d="m 13.153843,69.299065 h 2.624776 a 0.42855696,0.42855696 45 0 1 0.428557,0.428557 v 2.394212 a 0.47466971,0.47466971 135 0 1 -0.47467,0.474669 h -2.525963 a 0.42855696,0.42855696 45 0 1 -0.428556,-0.428556 v -2.493026 a 0.37585663,0.37585663 135 0 1 0.375856,-0.375856 z" />
    <ellipse
       style="fill:#eb0000;fill-opacity:1;stroke:#ed0000;stroke-width:0.2;stroke-dasharray:none;stroke-opacity:1"
       id="path2"
       cx="14.294957"
       cy="76.678947"
       rx="0.98813069"
       ry="1.0540061" />
    <circle
       style="fill:#ec0000;fill-opacity:1;stroke:#e90000;stroke-width:0.205974;stroke-dasharray:none;stroke-opacity:1"
       id="path2-1"
       cx="14.280629"
       cy="82.520409"
       r="1.0510192" />
    <ellipse
       style="fill:#e7e7e7;fill-opacity:1;stroke:#e8e8e8;stroke-width:0.166468;stroke-dasharray:none;stroke-opacity:1"
       id="path2-1-0"
       cx="38.720325"
       cy="82.354668"
       rx="0.83786756"
       ry="0.86115801" />
    <ellipse
       style="fill:#e7e7e7;fill-opacity:1;stroke:#e8e8e8;stroke-width:0.166468;stroke-dasharray:none;stroke-opacity:1"
       id="path2-1-0-1"
       cx="41.54808"
       cy="82.351204"
       rx="0.83786756"
       ry="0.86115801" />
    <ellipse
       style="fill:#e7e7e7;fill-opacity:1;stroke:#e8e8e8;stroke-width:0.166468;stroke-dasharray:none;stroke-opacity:1"
       id="path2-1-0-8"
       cx="44.139347"
       cy="82.331902"
       rx="0.83786756"
       ry="0.86115801" />
    <path
       style="font-size:4.23333px;line-height:0;font-family:Calibri;-inkscape-font-specification:Calibri;stroke:#000000;stroke-width:0.196;stroke-linejoin:round"
       d="m 13.210853,71.701971 q 0,-0.06615 -0.01654,-0.115755 0,-0.148828 0.198438,-0.264583 0.132291,-0.06615 0.198437,-0.06615 0.08268,0.01654 0.115755,0.09922 0.09922,0.23151 0.132292,0.314192 0.03307,0.06615 0.06615,0.06615 0.03307,0 0.06615,-0.04961 0.562239,-0.992187 1.008723,-1.53789 0.347266,-0.413411 0.429948,-0.479557 0.264583,-0.198437 0.628385,-0.214973 l 0.01654,0.08268 q -0.281119,0.281119 -0.97565,1.25677 -0.677994,0.97565 -0.97565,1.537889 -0.06615,0.148828 -0.165365,0.181901 -0.04961,0.04961 -0.214973,0.03307 -0.115756,0.01654 -0.165365,-0.03307 -0.04961,-0.03307 -0.09922,-0.132292 -0.165364,-0.396874 -0.248046,-0.677994 z"
       id="text4"
       aria-label="✓" />
    <path
       style="fill:#e9e9e9;fill-opacity:1;stroke:#e9e9e9;stroke-width:0.196;stroke-linejoin:round;stroke-miterlimit:4;stroke-dasharray:none;stroke-opacity:1"
       id="rect5"
       width="28.134882"
       height="1.4905895"
       x="19.377666"
       y="70.523529"
       d="m 20.214893,70.523529 h 26.52278 a 0.77487507,0.77487507 45 0 1 0.774875,0.774875 0.79669107,0.79669107 140.56254 0 1 -0.870164,0.715715 H 20.053728 a 0.676062,0.676062 45 0 1 -0.676062,-0.676062 0.82595512,0.82595512 135.78734 0 1 0.837227,-0.814528 z"
       transform="translate(-0.09316186,-0.41922836)" />
    <path
       style="fill:#e9e9e9;fill-opacity:1;stroke:#e9e9e9;stroke-width:0.196;stroke-linejoin:round;stroke-miterlimit:4;stroke-dasharray:none;stroke-opacity:1"
       id="rect5-5"
       width="28.134882"
       height="1.4905895"
       x="19.377666"
       y="70.523529"
       d="m 20.214893,70.523529 h 26.52278 a 0.77487507,0.77487507 45 0 1 0.774875,0.774875 0.79669107,0.79669107 140.56254 0 1 -0.870164,0.715715 H 20.053728 a 0.676062,0.676062 45 0 1 -0.676062,-0.676062 0.82595512,0.82595512 135.78734 0 1 0.837227,-0.814528 z"
       transform="translate(0.11674242,5.3720053)" />
    <rect
       style="fill:#e7e7e7;fill-opacity:1;stroke:#e8e8e8;stroke-width:0.204916;stroke-linejoin:round;stroke-miterlimit:4;stroke-dasharray:none;stroke-opacity:1"
       id="rect8"
       width="17.086285"
       height="1.5282546"
       x="19.545155"
       y="81.637527"
       ry="0.76412731" />
  </g>
</svg>
